# Blender v2.80 (sub 75) OBJ File: 'test.blend'
# www.blender.org
mtllib test.mtl
o Cube
v 1.000000 1.000000 -1.000000
v 1.000000 -1.000000 -1.000000
v 1.000000 1.000000 1.000000
v 1.000000 -1.000000 1.000000
v -1.000000 1.000000 -1.000000
v -1.000000 -1.000000 -1.000000
v -1.000000 1.000000 1.000000
v -1.000000 -1.000000 1.000000
v 1.000000 1.000000 1.000000
v 1.000000 1.000000 -1.000000
v 1.000000 -1.000000 -1.000000
v 0.450597 3.671000 0.450597
v -0.450597 3.671000 0.450597
v 0.450597 3.671000 -0.450597
v -0.450597 3.671000 -0.450597
v 1.000000 2.725447 1.000000
v -1.000000 2.725447 1.000000
v 1.000000 2.725447 -1.000000
v -1.000000 2.725447 -1.000000
v 1.000000 1.000000 1.765431
v -1.000000 1.000000 1.765431
v 1.000000 2.725447 2.551615
v -1.000000 2.725447 2.551615
v -1.623048 -1.000000 -1.000000
v -1.623048 -1.000000 1.000000
v -2.759477 0.355455 1.000000
v -2.759477 0.355455 -1.000000
v 2.044391 1.000000 -1.000000
v 2.044391 1.000000 1.000000
v 1.575913 2.725447 -1.000000
v 1.575913 2.725447 1.000000
v 1.000000 -1.000000 -2.172778
v -1.000000 -1.000000 -2.172778
v 1.000000 0.694306 -1.676803
v -1.000000 0.694306 -1.676803
vt 0.549437 0.452919
vt 0.549437 0.667717
vt 0.377549 0.667717
vt 0.377549 0.452919
vt 0.201814 0.785202
vt 0.000000 0.785202
vt 0.000000 0.570405
vt 0.201814 0.570405
vt 0.065039 0.381439
vt 0.201814 0.503490
vt 0.476315 0.214798
vt 0.274467 0.214798
vt 0.274467 0.000000
vt 0.476315 0.000000
vt 0.738562 0.214798
vt 0.539195 0.214798
vt 0.539195 0.000000
vt 0.738562 0.000000
vt 0.272484 0.383312
vt 0.272484 0.597575
vt 0.201814 0.595702
vt 0.201814 0.381439
vt 0.000000 0.000000
vt 0.000000 0.000000
vt 0.000000 0.000000
vt 0.000000 0.000000
vt 0.829188 0.215257
vt 0.829188 0.311803
vt 0.738562 0.312380
vt 0.738562 0.215834
vt 0.172686 0.166642
vt 0.000000 0.166642
vt 0.000000 0.084435
vt 0.172686 0.000000
vt 0.000000 0.381439
vt 0.172686 0.381439
vt 0.377549 0.391067
vt 0.549437 0.340753
vt 0.451275 0.823509
vt 0.451275 0.726722
vt 0.547707 0.667717
vt 0.547707 0.882514
vt 0.885421 0.927295
vt 0.885421 0.830508
vt 0.988345 0.771502
vt 0.988345 0.986300
vt 0.274467 0.225647
vt 0.274467 0.322434
vt 0.274467 0.608711
vt 0.274467 0.511924
vt 0.731167 0.555550
vt 0.731167 0.340753
vt 0.903818 0.340753
vt 0.903818 0.555550
vt 0.903818 0.555550
vt 0.903818 0.340753
vt 0.981069 0.340753
vt 0.981069 0.555550
vt 0.885421 0.771502
vt 0.885421 0.954535
vt 0.728826 0.954535
vt 0.808171 0.771502
vt 0.894596 0.000000
vt 0.894596 0.214263
vt 0.738562 0.215257
vt 0.738562 0.000993
vt 0.670308 0.989077
vt 0.549437 0.989077
vt 0.549437 0.774279
vt 0.670308 0.774279
vt 0.539195 0.000000
vt 0.539195 0.214798
vt 0.549437 0.559482
vt 0.549437 0.345450
vt 0.731167 0.340753
vt 0.731167 0.554785
vt 0.906400 0.559482
vt 0.906400 0.771502
vt 0.843519 0.771502
vt 0.728826 0.627810
vt 0.728826 0.559482
vt 0.728826 0.774279
vt 0.549437 0.774279
vt 0.549437 0.559482
vt 0.728286 0.774648
vt 0.728286 0.988680
vt 0.670308 0.988311
vt 0.670308 0.774279
vt 1.000000 0.000000
vt 1.000000 0.185280
vt 0.894596 0.185280
vt 0.941877 0.000000
vt 0.223766 0.785202
vt 0.223766 1.000000
vt 0.118361 1.000000
vt 0.118361 0.785202
vt 0.451275 0.882514
vt 0.274467 0.882514
vt 0.274467 0.667717
vt 0.451275 0.667717
vt 0.738562 0.340753
vt 0.569668 0.287485
vt 0.000000 0.998208
vt 0.000000 0.785202
vt 0.068306 0.817760
vt 0.118361 0.998208
vt 0.476315 0.340753
vt 0.274467 0.340753
vn 0.0000 0.0000 -1.0000
vn 0.0000 0.0000 1.0000
vn 0.0000 -1.0000 0.0000
vn 1.0000 0.0000 0.0000
vn 0.0000 0.9113 -0.4116
vn 0.0000 1.0000 0.0000
vn -1.0000 0.0000 0.0000
vn 0.0000 0.5024 0.8646
vn 0.8646 0.5024 0.0000
vn -0.8646 0.5024 0.0000
vn 0.0000 0.5024 -0.8646
vn 0.0000 -0.4146 0.9100
vn -0.7663 -0.6425 0.0000
vn -0.3440 0.9390 0.0000
vn 0.9651 0.2620 0.0000
vn 0.0000 0.2809 -0.9597
usemtl CubeMaterial2
s off
f 1/1/1 5/2/1 19/3/1 18/4/1
f 4/5/2 3/6/2 7/7/2 8/8/2
f 8/8/2 7/7/2 26/9/2 25/10/2
f 6/11/3 2/12/3 4/13/3 8/14/3
f 2/15/4 1/16/4 3/17/4 4/18/4
f 5/19/5 1/20/5 34/21/5 35/22/5
f 2/23/2 1/24/2 10/25/2 11/26/2
f 14/27/6 15/28/6 13/29/6 12/30/6
f 17/31/7 7/32/7 21/33/7 23/34/7
f 5/35/7 7/32/7 17/31/7 19/36/7
f 1/1/1 18/4/1 30/37/1 28/38/1
f 12/39/8 13/40/8 17/41/8 16/42/8
f 14/43/9 12/44/9 16/45/9 18/46/9
f 13/47/10 15/48/10 19/36/10 17/31/10
f 15/49/11 14/50/11 18/4/11 19/3/11
f 21/51/12 20/52/12 22/53/12 23/54/12
f 7/55/3 3/56/3 20/57/3 21/58/3
f 3/59/4 16/60/4 22/61/4 20/62/4
f 16/63/6 17/64/6 23/65/6 22/66/6
f 25/67/13 26/68/13 27/69/13 24/70/13
f 6/11/3 8/14/3 25/71/3 24/72/3
f 7/73/14 5/74/14 27/75/14 26/76/14
f 5/77/1 6/78/1 24/79/1 27/80/1
f 29/81/15 28/82/15 30/83/15 31/84/15
f 18/85/6 16/86/6 31/87/6 30/88/6
f 16/89/2 3/90/2 29/91/2 31/92/2
f 3/93/3 1/94/3 28/95/3 29/96/3
f 33/97/16 35/98/16 34/99/16 32/100/16
f 1/16/4 2/15/4 32/101/4 34/102/4
f 6/103/7 5/104/7 35/105/7 33/106/7
f 2/12/3 6/11/3 33/107/3 32/108/3
l 3 9
o Cube.001
v 1.000000 1.000000 -1.000000
v -1.000000 1.000000 -1.000000
v -1.000000 2.725447 -1.000000
v 1.000000 2.725447 -1.000000
v 1.000000 -1.000000 1.000000
v 1.000000 1.000000 1.000000
v -1.000000 1.000000 1.000000
v -1.000000 -1.000000 1.000000
v -2.759477 0.355455 1.000000
v -1.623048 -1.000000 1.000000
v -1.000000 -1.000000 -1.000000
v 1.000000 -1.000000 -1.000000
v 1.000000 0.694306 -1.676803
v -1.000000 0.694306 -1.676803
v 1.000000 1.000000 -1.000000
v 1.000000 -1.000000 -1.000000
v 0.450597 3.671000 -0.450596
v -0.450597 3.671000 -0.450596
v -0.450597 3.671000 0.450598
v 0.450597 3.671000 0.450598
v -1.000000 2.725447 1.000000
v -1.000000 1.000000 1.765431
v -1.000000 2.725446 2.551615
v 1.575913 2.725447 -1.000000
v 2.044391 1.000000 -1.000000
v 1.000000 2.725447 1.000000
v 1.000000 1.000000 1.765431
v 1.000000 2.725446 2.551615
v -2.759477 0.355455 -1.000000
v -1.623048 -1.000000 -1.000000
v 2.044391 1.000000 1.000000
v 1.575913 2.725447 1.000000
v -1.000000 -1.000000 -2.172778
v 1.000000 -1.000000 -2.172778
v 1.000000 1.000000 1.000000
vt 0.549437 0.452919
vt 0.549437 0.667717
vt 0.377549 0.667717
vt 0.377549 0.452919
vt 0.201814 0.785202
vt 0.000000 0.785202
vt 0.000000 0.570405
vt 0.201814 0.570405
vt 0.065039 0.381439
vt 0.201814 0.503490
vt 0.476315 0.214798
vt 0.274467 0.214798
vt 0.274467 0.000000
vt 0.476315 0.000000
vt 0.738562 0.214798
vt 0.539195 0.214798
vt 0.539195 0.000000
vt 0.738562 0.000000
vt 0.272484 0.383312
vt 0.272484 0.597575
vt 0.201814 0.595702
vt 0.201814 0.381439
vt 0.000000 0.000000
vt 0.000000 0.000000
vt 0.000000 0.000000
vt 0.000000 0.000000
vt 0.829188 0.215257
vt 0.829188 0.311803
vt 0.738562 0.312380
vt 0.738562 0.215834
vt 0.172686 0.166642
vt 0.000000 0.166642
vt 0.000000 0.084435
vt 0.172686 0.000000
vt 0.000000 0.381439
vt 0.172686 0.381439
vt 0.377549 0.391067
vt 0.549437 0.340753
vt 0.451275 0.823509
vt 0.451275 0.726722
vt 0.547707 0.667717
vt 0.547707 0.882514
vt 0.885421 0.927295
vt 0.885421 0.830508
vt 0.988345 0.771502
vt 0.988345 0.986300
vt 0.274467 0.225647
vt 0.274467 0.322434
vt 0.274467 0.608711
vt 0.274467 0.511924
vt 0.731167 0.555550
vt 0.731167 0.340753
vt 0.903818 0.340753
vt 0.903818 0.555550
vt 0.903818 0.555550
vt 0.903818 0.340753
vt 0.981069 0.340753
vt 0.981069 0.555550
vt 0.885421 0.771502
vt 0.885421 0.954535
vt 0.728826 0.954535
vt 0.808171 0.771502
vt 0.894596 0.000000
vt 0.894596 0.214263
vt 0.738562 0.215257
vt 0.738562 0.000993
vt 0.670308 0.989077
vt 0.549437 0.989077
vt 0.549437 0.774279
vt 0.670308 0.774279
vt 0.539195 0.000000
vt 0.539195 0.214798
vt 0.549437 0.559482
vt 0.549437 0.345450
vt 0.731167 0.340753
vt 0.731167 0.554785
vt 0.906400 0.559482
vt 0.906400 0.771502
vt 0.843519 0.771502
vt 0.728826 0.627810
vt 0.728826 0.559482
vt 0.728826 0.774279
vt 0.549437 0.774279
vt 0.549437 0.559482
vt 0.728286 0.774648
vt 0.728286 0.988680
vt 0.670308 0.988311
vt 0.670308 0.774279
vt 1.000000 0.000000
vt 1.000000 0.185280
vt 0.894596 0.185280
vt 0.941877 0.000000
vt 0.223766 0.785202
vt 0.223766 1.000000
vt 0.118361 1.000000
vt 0.118361 0.785202
vt 0.451275 0.882514
vt 0.274467 0.882514
vt 0.274467 0.667717
vt 0.451275 0.667717
vt 0.738562 0.340753
vt 0.569668 0.287485
vt 0.000000 0.998208
vt 0.000000 0.785202
vt 0.068306 0.817760
vt 0.118361 0.998208
vt 0.476315 0.340753
vt 0.274467 0.340753
vn 0.0000 0.0000 -1.0000
vn 0.0000 -0.0000 1.0000
vn 0.0000 -1.0000 -0.0000
vn 1.0000 0.0000 0.0000
vn 0.0000 0.9113 -0.4116
vn 0.0000 1.0000 0.0000
vn -1.0000 0.0000 0.0000
vn 0.0000 0.5024 0.8646
vn 0.8646 0.5024 0.0000
vn -0.8646 0.5024 0.0000
vn 0.0000 0.5024 -0.8646
vn 0.0000 -0.4146 0.9100
vn -0.7663 -0.6425 -0.0000
vn -0.3440 0.9390 0.0000
vn 0.9651 0.2620 0.0000
vn 0.0000 0.2809 -0.9597
usemtl CubeMaterial2.001
s 1
f 36/109/17 37/110/17 38/111/17 39/112/17
f 40/113/18 41/114/18 42/115/18 43/116/18
f 43/116/18 42/115/18 44/117/18 45/118/18
f 46/119/19 47/120/19 40/121/19 43/122/19
f 47/123/20 36/124/20 41/125/20 40/126/20
f 37/127/21 36/128/21 48/129/21 49/130/21
f 47/131/18 36/132/18 50/133/18 51/134/18
f 52/135/22 53/136/22 54/137/22 55/138/22
f 56/139/23 42/140/23 57/141/23 58/142/23
f 37/143/23 42/140/23 56/139/23 38/144/23
f 36/109/17 39/112/17 59/145/17 60/146/17
f 55/147/24 54/148/24 56/149/24 61/150/24
f 52/151/25 55/152/25 61/153/25 39/154/25
f 54/155/26 53/156/26 38/144/26 56/139/26
f 53/157/27 52/158/27 39/112/27 38/111/27
f 57/159/28 62/160/28 63/161/28 58/162/28
f 42/163/19 41/164/19 62/165/19 57/166/19
f 41/167/20 61/168/20 63/169/20 62/170/20
f 61/171/22 56/172/22 58/173/22 63/174/22
f 45/175/29 44/176/29 64/177/29 65/178/29
f 46/119/19 43/122/19 45/179/19 65/180/19
f 42/181/30 37/182/30 64/183/30 44/184/30
f 37/185/17 46/186/17 65/187/17 64/188/17
f 66/189/31 60/190/31 59/191/31 67/192/31
f 39/193/22 61/194/22 67/195/22 59/196/22
f 61/197/18 41/198/18 66/199/18 67/200/18
f 41/201/19 36/202/19 60/203/19 66/204/19
f 68/205/32 49/206/32 48/207/32 69/208/32
f 36/124/20 47/123/20 69/209/20 48/210/20
f 46/211/23 37/212/23 49/213/23 68/214/23
f 47/120/19 46/119/19 68/215/19 69/216/19
