# Blender v2.80 (sub 75) OBJ File: ''
# www.blender.org
mtllib cube.mtl
o Cube.001
v 29.000000 1.000002 -29.000000
v -29.000000 1.000002 -29.000000
v -29.000000 0.999998 29.000000
v 29.000000 0.999998 29.000000
v 29.000000 -1.000002 29.000000
v -29.000000 -1.000002 29.000000
v -29.000000 -0.999998 -29.000000
v 29.000000 -0.999998 -29.000000
vt -2.336873 -10.847492
vt 3.336873 -10.847492
vt 3.336873 -5.173746
vt -2.336873 -5.173746
vt -2.336873 -5.173746
vt 3.336873 -5.173746
vt 3.336873 0.500000
vt -2.336873 0.500000
vt 3.336873 6.173746
vt -2.336873 6.173746
vt 3.336873 6.173746
vt 3.336873 11.847492
vt -2.336873 11.847492
vt -8.010620 0.500000
vt -2.336873 0.500000
vt -2.336873 6.173746
vt -8.010620 6.173746
vt 3.336873 0.500000
vt 9.010620 0.500000
vt 9.010620 6.173746
vn 0.0000 1.0000 0.0000
vn 0.0000 0.0000 1.0000
vn -1.0000 0.0000 0.0000
vn 0.0000 -1.0000 -0.0000
vn 1.0000 0.0000 0.0000
vn 0.0000 0.0000 -1.0000
usemtl PrototypeMaterial
s 1
f 1/1/1 2/2/1 3/3/1 4/4/1
f 5/5/2 4/6/2 3/7/2 6/8/2
f 6/8/3 3/7/3 2/9/3 7/10/3
f 7/10/4 8/11/4 5/12/4 6/13/4
f 8/14/5 1/15/5 4/16/5 5/17/5
f 7/18/6 2/19/6 1/20/6 8/11/6
